<svg viewBox="0 0 1200 120" xmlns="http://www.w3.org/2000/svg" font-family="system-ui,-apple-system,sans-serif">
  <rect width="1200" height="120" fill="#f9f9f9" rx="12"/>
  <rect width="1200" height="2" y="0" fill="#EFB93D" rx="2"/>

  <!-- Cards -->
  <!-- ScrollToTop -->
  <rect x="30" y="20" width="260" height="80" rx="8" fill="#ffffff" stroke="#e8e8e8"/>
  <circle cx="54" cy="44" r="10" fill="#0a0a0a"/>
  <text x="54" y="49" text-anchor="middle" fill="#EFB93D" font-size="11" font-weight="800">↑</text>
  <text x="74" y="44" fill="#0a0a0a" font-size="13" font-weight="700">ScrollToTop</text>
  <text x="74" y="60" fill="#666" font-size="10">Studio — actif</text>
  <text x="44" y="86" fill="#888" font-size="9.5">Web · Mobile · SaaS · Automatisation</text>

  <!-- Alex -->
  <rect x="310" y="20" width="260" height="80" rx="8" fill="#ffffff" stroke="#e8e8e8"/>
  <circle cx="334" cy="44" r="10" fill="#1a1400"/>
  <text x="334" y="49" text-anchor="middle" fill="#EFB93D" font-size="11" font-weight="800">A</text>
  <text x="354" y="44" fill="#0a0a0a" font-size="13" font-weight="700">Alex SaaS</text>
  <text x="354" y="60" fill="#EFB93D" font-size="10" font-weight="600">En construction</text>
  <text x="324" y="86" fill="#888" font-size="9.5">Produit SaaS — documentation publique</text>

  <!-- Content -->
  <rect x="590" y="20" width="260" height="80" rx="8" fill="#ffffff" stroke="#e8e8e8"/>
  <circle cx="614" cy="44" r="10" fill="#1a1a1a"/>
  <text x="614" y="49" text-anchor="middle" fill="#EFB93D" font-size="11" font-weight="800">▶</text>
  <text x="634" y="44" fill="#0a0a0a" font-size="13" font-weight="700">Contenu technique</text>
  <text x="634" y="60" fill="#666" font-size="10">À venir</text>
  <text x="604" y="86" fill="#888" font-size="9.5">YouTube · Articles · Documentation</text>

  <!-- Philosophy -->
  <rect x="870" y="20" width="300" height="80" rx="8" fill="#0a0a0a"/>
  <text x="890" y="48" fill="#EFB93D" font-size="11" font-weight="700">"La réflexion d'abord.</text>
  <text x="890" y="66" fill="#EFB93D" font-size="11" font-weight="700">L'IA en dernier."</text>
  <text x="890" y="86" fill="#555" font-size="9.5">— ScrollToTop Method</text>
</svg>
